<?xml version="1.0" encoding="utf-8"?>
<!-- Generator: Adobe Illustrator 21.1.0, SVG Export Plug-In . SVG Version: 6.00 Build 0)  -->
<svg version="1.1" id="iconos" xmlns="http://www.w3.org/2000/svg" xmlns:xlink="http://www.w3.org/1999/xlink" x="0px" y="0px"
	 viewBox="0 0 247.9 159.6" style="enable-background:new 0 0 247.9 159.6;" xml:space="preserve">
<style type="text/css">
	.st0{fill:#E0AE32;}
	.st1{fill:#FAD048;}
	.st2{fill:#4D4D4D;}
	.st3{font-family:'Arial-ItalicMT';}
	.st4{font-size:20.1972px;}
	.st5{font-size:20.2388px;}
	.st6{font-size:20.1964px;}
	.st7{font-size:20.2394px;}
</style>
<title>Taxinet - Web - Home Grilla- 1664 - BC (1)</title>
<g id="center_ribbon">
	<polygon class="st0" points="111.9,18.3 -1.9,51.5 111.9,51.5 	"/>
	<polygon class="st0" points="195.6,154.8 246,108.2 195.6,108.2 	"/>
	<polygon class="st1" points="247.9,108.1 0,159.6 0,51.4 247.9,-0.1 	"/>
	<text id="G_1_" transform="matrix(0.978 -0.2088 0.2088 0.978 27.1014 100.3447)" class="st2 st3 st4">G</text>
	<text transform="matrix(0.978 -0.2088 0.2088 0.978 42.4837 97.1305)" class="st2 st3 st4">E</text>
	<text transform="matrix(0.9778 -0.2094 0.2094 0.9778 55.8012 93.931)" class="st2 st3 st5">T</text>
	<text transform="matrix(0.9778 -0.2094 0.2094 0.9778 71.5307 90.3972)" class="st2 st3 st5">A</text>
	<text transform="matrix(0.978 -0.2088 0.2088 0.978 85.0263 87.3668)" class="st2 st3 st4">H</text>
	<text transform="matrix(0.9778 -0.2094 0.2094 0.9778 98.7423 83.8264)" class="st2 st3 st5">E</text>
	<text transform="matrix(0.978 -0.2088 0.2088 0.978 112.9805 80.8924)" class="st2 st3 st4">A</text>
	<text transform="matrix(0.978 -0.2088 0.2088 0.978 126.1982 77.696)" class="st2 st3 st4">D</text>
	<text id="G" transform="matrix(0.9728 -0.2316 0.2316 0.9728 28.7043 135.5888)" class="st2 st3 st6">Y</text>
	<text transform="matrix(0.9728 -0.2316 0.2316 0.9728 39.0325 133.1328)" class="st2 st3 st6">o</text>
	<text transform="matrix(0.9727 -0.2322 0.2322 0.9727 49.2954 130.6922)" class="st2 st3 st7">u</text>
	<text transform="matrix(0.9727 -0.2322 0.2322 0.9727 59.8142 128.5406)" class="st2 st3 st7">r</text>
	<text transform="matrix(0.9727 -0.2322 0.2322 0.9727 71.9363 126.6278)" class="st2 st3 st7">f</text>
	<text transform="matrix(0.9728 -0.2316 0.2316 0.9728 77.3827 124.469)" class="st2 st3 st6">u</text>
	<text transform="matrix(0.9727 -0.2322 0.2322 0.9727 89.0361 121.6552)" class="st2 st3 st7">t</text>
	<text transform="matrix(0.9728 -0.2316 0.2316 0.9728 94.2508 120.5994)" class="st2 st3 st6">u</text>
	<text transform="matrix(0.9728 -0.2316 0.2316 0.9728 104.832 118.3481)" class="st2 st3 st6">r</text>
	<text transform="matrix(0.9728 -0.2316 0.2316 0.9728 111.6956 116.8843)" class="st2 st3 st6">e</text>
	<text transform="matrix(0.9728 -0.2316 0.2316 0.9728 122.3394 114.7668)" class="st2 st3 st6">s</text>
	<text transform="matrix(0.9728 -0.2316 0.2316 0.9728 135.7906 112.018)" class="st2 st3 st6">a</text>
	<text transform="matrix(0.9728 -0.2316 0.2316 0.9728 146.4452 109.8528)" class="st2 st3 st6">w</text>
	<text transform="matrix(0.9728 -0.2316 0.2316 0.9728 203.1611 95.7549)" class="st2 st3 st6">o</text>
	<text transform="matrix(0.9728 -0.2316 0.2316 0.9728 193.6844 97.8365)" class="st2 st3 st6">y</text>
	<text transform="matrix(0.9728 -0.2316 0.2316 0.9728 181.7845 101.0094)" class="st2 st3 st6">s</text>
	<text transform="matrix(0.9728 -0.2316 0.2316 0.9728 176.2021 102.1236)" class="st2 st3 st6">t</text>
	<text transform="matrix(0.9728 -0.2316 0.2316 0.9728 171.8634 102.8614)" class="st2 st3 st6">i</text>
	<text transform="matrix(0.9728 -0.2316 0.2316 0.9728 160.5346 106.0406)" class="st2 st3 st6">a</text>
	<text transform="matrix(0.9728 -0.2316 0.2316 0.9728 214.2554 92.9781)" class="st2 st3 st6">u</text>
</g>
</svg>
